<svg width="114" height="50" viewBox="0 0 114 50" fill="none" xmlns="http://www.w3.org/2000/svg">
<path d="M42.2159 44.416C45.8828 44.416 48.8851 43.7514 51.2228 42.4221C53.6064 41.047 55.3482 39.0989 56.4482 36.5779C57.5942 34.0569 58.1671 31.0546 58.1671 27.5709C58.1671 24.4999 57.8004 21.6351 57.067 18.9765C56.3337 16.318 55.119 13.8198 53.423 11.4822C51.9218 9.35548 49.9275 7.36157 47.4399 5.50044L46.7537 4.9993L46.685 4.9504V0H77.5562L83.2629 17.7389L89.1071 0H113.447C113.447 0 113.447 45.1861 113.447 47.7644C113.447 50.3427 107.946 50.5146 107.946 47.7644C107.946 45.0142 107.946 5.50044 107.946 5.50044H93.6786C93.6786 5.50044 89.1758 19.3203 87.732 23.4456C86.2881 27.5709 80.6158 27.7772 78.9313 23.4456C77.2468 19.114 72.9846 5.50044 72.9846 5.50044H54.34C56.274 6.95563 58.008 8.76619 59.5422 10.9321C61.1007 13.1323 62.3383 15.6304 63.255 18.4265C64.2176 21.2225 64.6989 24.3394 64.6989 27.7772C64.6989 32.2692 63.828 36.1654 62.0862 39.4656C60.3444 42.7659 57.8004 45.3328 54.4543 47.1663C51.1082 48.9539 47.0287 49.8477 42.2159 49.8477C37.3571 49.8477 33.2547 48.9539 29.9086 47.1663C26.5625 45.3786 24.0186 42.8347 22.2768 39.5344C20.535 36.2341 19.6641 32.338 19.6641 27.846C19.6641 24.4082 20.1224 21.2913 21.0392 18.4952C21.9559 15.6533 23.1935 13.1323 24.752 10.9321C26.3563 8.73194 28.121 6.89846 30.0462 5.43168H5.50045C5.50045 5.43168 5.50042 45.0829 5.50045 47.7644C5.50049 50.4458 5.28747e-05 51.0303 1.62691e-05 47.7644C-2.03364e-05 44.4985 1.62691e-05 0 1.62691e-05 0H37.678V4.9504C34.8361 6.96722 32.5672 9.14448 30.8712 11.4822C29.1753 13.8198 27.9606 16.3409 27.2272 19.0453C26.4938 21.7038 26.1271 24.5457 26.1271 27.5709C26.1271 31.0546 26.7001 34.0569 27.846 36.5779C28.9919 39.0989 30.7566 41.047 33.1401 42.4221C35.5237 43.7514 38.5489 44.416 42.2159 44.416Z" fill="white"/>
</svg>
