<svg width="64" height="30" viewBox="0 0 64 30" fill="none" xmlns="http://www.w3.org/2000/svg">
<path d="M23.8235 25.3691C25.8929 25.3691 27.5871 24.994 28.9064 24.2439C30.2514 23.4679 31.2344 22.3686 31.8552 20.9459C32.5019 19.5232 32.8252 17.8289 32.8252 15.863C32.8252 14.1299 32.6183 12.5132 32.2044 11.0129C31.7905 9.51266 31.105 8.10291 30.148 6.78369C29.3008 5.58355 27.7493 4.14794 26.3455 3.09765V0.304016H43.7669L46.9874 10.3145L50.2854 0.304016H64V28.4344C64 29.9476 60.896 30.2774 60.896 28.4344V3.40805H52.8652C52.8652 3.40805 50.3242 11.207 49.5094 13.535C48.6946 15.863 45.4936 15.9794 44.5429 13.535C43.5923 11.0905 41.1871 3.40805 41.1871 3.40805H30.6654C31.7568 4.22925 32.7354 5.251 33.6012 6.47329C34.4807 7.71491 35.1791 9.12466 35.6964 10.7025C36.2396 12.2804 36.5112 14.0394 36.5112 15.9794C36.5112 18.5144 36.0198 20.7131 35.0368 22.5755C34.0539 24.4379 32.6183 25.8865 30.73 26.9211C28.8417 27.93 26.5395 28.4344 23.8235 28.4344C21.0816 28.4344 18.7665 27.93 16.8782 26.9211C14.9899 25.9123 13.5543 24.4767 12.5714 22.6143C11.5884 20.7519 11.0969 18.5532 11.0969 16.0182C11.0969 14.0782 11.3556 12.3192 11.873 10.7413C12.3903 9.13759 13.0887 7.71491 13.9682 6.47329C14.8735 5.23168 15.8694 4.197 16.9558 3.36925H3.10405V28.4344C3.10407 29.9476 2.98385e-05 30.2774 9.18109e-06 28.4344V0.304016H21.2627V3.09765C19.6589 4.2358 18.3785 5.46448 17.4214 6.78369C16.4643 8.10291 15.7789 9.52559 15.365 11.0517C14.9511 12.552 14.7442 14.1558 14.7442 15.863C14.7442 17.8289 15.0675 19.5232 15.7142 20.9459C16.3609 22.3686 17.3568 23.4679 18.7018 24.2439C20.0469 24.994 21.7541 25.3691 23.8235 25.3691Z" fill="white"/>
</svg>
